<svg width="62" height="43" viewBox="0 0 62 43" fill="none" xmlns="http://www.w3.org/2000/svg">
<path d="M20.9531 38.1035C19.1133 38.9941 16.7109 39.4395 13.7461 39.4395C9.87891 39.4395 6.83789 38.3027 4.62305 36.0293C2.4082 33.7559 1.30078 30.7266 1.30078 26.9414C1.30078 22.9102 2.54297 19.6406 5.02734 17.1328C7.52344 14.625 10.7578 13.3711 14.7305 13.3711C17.1914 13.3711 19.2656 13.6816 20.9531 14.3027V19.7695C19.2656 18.7617 17.3438 18.2578 15.1875 18.2578C12.8203 18.2578 10.9102 19.002 9.45703 20.4902C8.00391 21.9785 7.27734 23.9941 7.27734 26.5371C7.27734 28.9746 7.96289 30.9199 9.33398 32.373C10.7051 33.8145 12.5508 34.5352 14.8711 34.5352C17.0859 34.5352 19.1133 33.9961 20.9531 32.918V38.1035ZM46.3008 39H39.1289L31.7812 28.0488C31.6406 27.8379 31.418 27.375 31.1133 26.6602H31.0254V39H25.3477V13.793H31.0254V25.7109H31.1133C31.2539 25.3828 31.4883 24.9141 31.8164 24.3047L38.7773 13.793H45.5449L36.7559 25.8164L46.3008 39Z" fill="white"/>
<path d="M62 35C62 37.2091 60.2091 39 58 39C55.7909 39 54 37.2091 54 35C54 32.7909 55.7909 31 58 31C60.2091 31 62 32.7909 62 35Z" fill="#D05357"/>
</svg>
