<svg width="1023" height="423" viewBox="0 0 1023 423" fill="none" xmlns="http://www.w3.org/2000/svg">
<path d="M3 318.797C51 353.797 162.8 419.797 226 403.797C305 383.797 324.5 280.797 446.5 256.797C568.5 232.797 658 316.297 752.5 195.797C847 75.2971 893 -3.70285 1020 13.2971" stroke="#D05357" stroke-width="5" stroke-linecap="round" stroke-linejoin="round"/>
<path d="M567 225H543C531.954 225 523 233.954 523 245V269C523 280.046 531.954 289 543 289H567C578.046 289 587 280.046 587 269V245C587 233.954 578.046 225 567 225Z" fill="#2E2F34"/>
<path d="M556 245H553C547.477 245 543 249.477 543 255V258C543 263.523 547.477 268 553 268H556C561.523 268 566 263.523 566 258V255C566 249.477 561.523 245 556 245Z" fill="#E9E9E9"/>
<path d="M140 359H116C104.954 359 96 367.954 96 379V403C96 414.046 104.954 423 116 423H140C151.046 423 160 414.046 160 403V379C160 367.954 151.046 359 140 359Z" fill="#2E2F34"/>
<path d="M129 379H126C120.477 379 116 383.477 116 389V392C116 397.523 120.477 402 126 402H129C134.523 402 139 397.523 139 392V389C139 383.477 134.523 379 129 379Z" fill="#E9E9E9"/>
<path d="M919 0H895C883.954 0 875 8.9543 875 20V44C875 55.0457 883.954 64 895 64H919C930.046 64 939 55.0457 939 44V20C939 8.9543 930.046 0 919 0Z" fill="#2E2F34"/>
<path d="M908 20H905C899.477 20 895 24.4772 895 30V33C895 38.5228 899.477 43 905 43H908C913.523 43 918 38.5228 918 33V30C918 24.4772 913.523 20 908 20Z" fill="#E9E9E9"/>
</svg>
